PathFileType	4	(X/Y/Z)	C:/Users/beibeiliu/ov580/test_trc\sequence.8_training_dense_left.trc
DataRate	CameraRate	NumFrames	NumMarkers	Units	OrigDataRate	OrigDataStartFrame	OrigNumFrames
120	120	21	19	mm	120	94	375
Frame#	Time	ThumbCMC			ThumbMCP			ThumbIP			ThumbTip			IndexMCP			IndexPIP			IndexTip			MiddleMCP			MiddlePIP			MiddleTip			RingMCP			RingPIP			RingTip			PinkyMCP			PinkyPIP			PinkyTip			BackHand1			BackHand2			BackHand3	
		X0	Y0	Z0	X1	Y1	Z1	X2	Y2	Z2	X3	Y3	Z3	X4	Y4	Z4	X5	Y5	Z5	X6	Y6	Z6	X7	Y7	Z7	X8	Y8	Z8	X9	Y9	Z9	X10	Y10	Z10	X11	Y11	Z11	X12	Y12	Z12	X13	Y13	Z13	X14	Y14	Z14	X15	Y15	Z15	X16	Y16	Z16	X17	Y17	Z17	X18	Y18	Z18	
93	0.775	-183.905	-30.2764	28.2362	-167.294	-48.8003	22.9713	-151.732	-58.7937	23.092	-136.536	-65.1405	30.1111	-168.615	-62.0219	-29.3416	-189.461	-81.8429	-22.5989	-193.426	-59.1978	0.443514	-188.086	-62.7999	-39.5044	-206.585	-76.9688	-24.7408	-207.809	-51.1964	-3.66139	-208.222	-56.1319	-42.1104	-218.648	-64.3891	-21.809	-211.111	-42.0062	-3.35922	-217.062	-45.2439	-41.4295	-225.264	-55.5239	-20.2199	-217.286	-33.0918	-6.58692	-196.655	-8.58818	-20.5336	-205.813	2.17058	2.8887	-183.082	-10.3146	3.97137	
94	0.783333	-183.292	-24.8783	27.7503	-164.4	-44.4064	28.8605	-143.725	-54.9341	26.2714	-133.121	-60.1984	29.7057	-166.497	-63.7829	-26.4061	-186.529	-78.9895	-18.4835	-190.231	-58.7924	2.34435	-183.531	-63.2122	-35.3172	-200.926	-77.2764	-16.0422	-203.698	-48.0946	0.909238	-203.789	-57.191	-37.5622	-212.418	-66.2455	-15.9519	-211.42	-38.9218	-0.413176	-216.011	-48.2853	-36.5618	-226.722	-56.0298	-17.2926	-216.952	-32.9477	-1.43808	-198.804	-10.0252	-18.8366	-207.839	5.29331	1.17126	-184.858	-7.78817	2.1559	
95	0.791667	-180.665	-22.2252	28.1585	-164.551	-40.3826	30.157	-143.205	-49.9284	24.9737	-130.761	-54.4342	34.9918	-164.502	-62.2707	-25.583	-183.263	-76.8523	-12.7128	-187.237	-51.2942	3.95972	-184.133	-61.4876	-34.4007	-195.964	-77.9382	-15.433	-201.1	-47.9488	2.95412	-203.308	-58.1799	-34.2694	-210.728	-66.415	-13.009	-209.765	-42.3512	1.94518	-218.178	-48.3072	-35.6192	-221.581	-54.9511	-8.23939	-211.757	-33.2898	-0.21011	-200.293	-9.01277	-23.0581	-209.761	3.56144	2.50511	-180.127	-5.71966	3.87325	
96	0.8	-177.04	-20.0549	28.549	-160.396	-37.2795	27.1962	-136.435	-45.4516	29.8136	-124.34	-48.6761	33.7425	-160.463	-57.149	-22.4702	-174	-76.7599	-6.78921	-183.03	-49.6957	8.07564	-180.716	-57.135	-30.7491	-194.289	-75.2896	-10.5685	-197.69	-49.3593	6.65978	-196.27	-59.0381	-30.3301	-204.77	-66.2166	-5.60134	-205.991	-40.829	4.39902	-212.953	-53.847	-29.845	-215.641	-56.7411	-5.92322	-213.401	-33.8491	2.31237	-201.699	-9.73306	-21.5644	-211.073	5.87099	-1.22296	-181.99	-4.27839	6.73676	
97	0.808333	-176.494	-17.1495	29.7293	-158.6	-33.8204	30.3648	-139.644	-41.2578	29.3924	-119.298	-43.0048	35.5217	-155.676	-52.5518	-20.4143	-170.336	-74.4898	-3.21208	-177.632	-47.7847	11.2947	-179.31	-57.0278	-29.0993	-188.765	-74.1782	-5.36046	-191.386	-47.1542	10.1714	-194.081	-58.6214	-27.8411	-203.981	-66.054	-3.9972	-204.385	-39.7756	7.18811	-210.695	-53.9805	-27.7017	-211.105	-57.733	-2.3003	-209.589	-32.6416	5.93431	-198.012	-8.98008	-18.9642	-213.66	5.42369	3.83262	-182.264	-3.33527	2.63568	
98	0.816667	-171.872	-12.6016	32.7453	-155.024	-28.7685	34.7944	-132.394	-35.772	30.8646	-119.11	-38.0799	33.8022	-155.855	-50.6674	-19.7195	-166.713	-71.4298	-1.80662	-175.108	-47.9948	13.1428	-175.04	-56.6839	-26.2137	-181.971	-74.3991	-5.58866	-188.195	-43.5168	11.2041	-192.91	-58.3986	-25.41	-200.384	-66.032	-2.68915	-200.122	-41.0817	9.8434	-207.948	-53.5134	-24.6369	-207.574	-57.5448	-0.652709	-207.367	-31.5299	8.31718	-199.064	-10.0596	-18.5797	-213.859	5.59417	4.12797	-181.809	-0.257229	8.20426	
99	0.825	-171.113	-11.2677	28.618	-151.243	-25.0585	31.6094	-131.994	-29.0542	33.6836	-117.795	-31.4771	37.2024	-153.053	-51.2331	-18.2855	-161.135	-70.4767	-2.16815	-171.98	-45.0029	14.6773	-171.578	-54.702	-24.8692	-178.018	-71.4319	-0.0196136	-183.685	-41.5746	13.5007	-189.804	-59.9912	-22.6924	-192.075	-64.8302	1.76464	-194.122	-38.9347	11.7887	-203.015	-52.1475	-23.8903	-204.215	-59.7176	0.0705882	-203.347	-35.9832	8.84208	-200.623	-8.53161	-18.1817	-210.559	4.75413	2.90513	-183.478	3.92103	5.51172	
100	0.833333	-173.219	-6.75932	32.3181	-148.689	-19.9243	33.0692	-130.604	-23.5658	33.0614	-115.074	-23.319	37.8294	-149.155	-46.6891	-16.2234	-156.401	-67.2836	-0.494912	-169.958	-41.7826	15.771	-167.608	-58.5059	-21.9972	-173.214	-71.3222	1.50875	-178.735	-40.9189	15.9429	-184.462	-57.2755	-21.4792	-186.212	-64.6883	3.96907	-192.885	-36.5417	13.829	-203.284	-57.0559	-20.4051	-198.524	-59.9906	3.45943	-200.305	-35.1083	11.9688	-199.705	-10.639	-18.191	-211.186	5.33602	6.38838	-180.755	2.6143	5.814	
101	0.841667	-166.901	-3.67477	27.9314	-149.936	-16.731	30.1115	-128.452	-19.3417	28.8445	-111.608	-16.7109	34.078	-145.225	-44.1952	-15.6459	-149.158	-63.3946	1.75614	-166.975	-38.48	16.6332	-163.574	-52.5882	-20.6702	-169.71	-67.3153	5.83264	-179.248	-40.681	15.7435	-179.297	-58.4258	-18.5435	-184.073	-62.2032	9.76601	-189.454	-36.6496	15.7484	-198.34	-58.2741	-17.6425	-192.655	-59.9689	5.32424	-198.307	-33.3676	13.5894	-198.696	-10.4421	-17.7569	-211.054	1.66092	1.3104	-178.524	5.10639	0.729733	
102	0.85	-165.052	1.85353	26.7372	-143.167	-8.55769	28.8684	-124.953	-11.5591	28.5669	-107.538	-8.61552	32.2322	-138.564	-42.1362	-15.1713	-142.86	-58.4769	5.13826	-160.587	-38.9572	17.9193	-159.175	-53.8757	-19.6179	-157.674	-64.644	7.85936	-172.93	-37.7325	18.0551	-176.973	-58.0909	-16.3368	-175.112	-59.5582	11.6163	-186.438	-34.9496	17.1972	-191.52	-56.3618	-15.0684	-185.939	-56.388	9.88894	-195.351	-32.4217	15.1761	-198.13	-13.3209	-18.532	-207.625	2.41185	1.47864	-181.375	5.69916	-2.06176	
103	0.858333	-167.369	3.7079	24.5602	-144.827	-3.78277	27.3315	-122.728	-2.40027	28.5825	-106.018	1.79597	30.2126	-137.497	-36.7653	-16.3573	-138.506	-53.5157	6.22193	-155.563	-31.5598	19.1309	-153.062	-49.8158	-17.9002	-153.798	-60.7088	10.1575	-166.575	-36.8203	20.1926	-167.731	-55.6922	-13.4919	-167.046	-57.2788	12.9412	-181.036	-31.5102	17.326	-184.464	-58.6516	-11.148	-179.284	-54.1664	12.9595	-189.085	-29.0254	16.5153	-195.879	-15.497	-17.5209	-208.237	0.617152	0.453293	-182.262	6.04345	-2.7156	
104	0.866667	-168.127	8.98718	24.5938	-142.514	0.646773	24.2436	-120.948	4.70301	25.8099	-103.513	11.9338	26.322	-132.998	-31.4979	-15.6348	-134.353	-47.5427	7.97464	-154.568	-27.2335	18.9478	-149.647	-47.3727	-17.0851	-145.758	-57.2592	10.2049	-163.157	-29.3395	19.1647	-162.074	-57.1725	-10.5844	-159.849	-55.5733	13.6488	-174.593	-29.4643	18.4446	-180.68	-56.1126	-10.6293	-173.127	-53.5751	14.0572	-185.279	-30.7461	19.6758	-195.895	-16.398	-18.95	-213.87	0.4385	0.961746	-181.307	8.99405	-0.549562	
105	0.875	-165.939	11.1107	20.5292	-142.404	5.66451	24.7649	-120.868	7.97069	20.7634	-109.141	15.635	25.4355	-128.595	-24.9095	-14.218	-127.654	-42.7786	5.62264	-148.489	-21.3734	21.1854	-141.138	-40.295	-16.0888	-137.971	-52.4128	10.2614	-157.144	-27.0829	21.8793	-159.018	-50.056	-12.4874	-153.813	-48.9953	16.9567	-172.006	-25.2443	19.4246	-175.703	-57.8971	-6.9235	-168.623	-53.0705	16.4374	-176.102	-28.9292	18.7091	-190.663	-13.6113	-16.2709	-209.341	1.34229	1.35449	-181.038	6.27203	-5.14932	
106	0.883333	-163.123	17.7082	21.9581	-141.407	12.979	26.1991	-119.323	15.6109	20.2276	-104.001	25.5881	21.1412	-124.036	-23.2353	-14.1821	-121.481	-35.9157	8.83093	-143.608	-18.881	20.6655	-136.195	-40.8649	-14.9191	-133.21	-47.2785	11.3136	-156.562	-24.4962	21.1502	-152.952	-47.9007	-11.001	-150.487	-49.0605	16.2297	-167.284	-27.6421	21.8687	-165.452	-55.2643	-4.11321	-164.633	-51.2641	18.9518	-177.937	-25.1593	20.037	-188.71	-17.6856	-17.2712	-208.514	-0.802088	1.60976	-179.245	11.7339	-3.41632	
107	0.891667	-164.823	17.5289	20.4584	-137.34	14.8748	19.5254	-120.318	19.5651	17.9063	-106.161	31.9404	19.0684	-121.944	-16.0494	-15.7886	-117.378	-31.5564	8.12799	-141.721	-16.4574	18.8618	-132.03	-38.1591	-14.1966	-128.555	-42.0242	13.7639	-150.29	-24.3193	21.9298	-147.592	-48.303	-8.68866	-145.522	-48.3561	17.6196	-161.375	-23.052	21.7951	-160.686	-55.0595	-5.08976	-156.501	-48.3926	16.6919	-169.358	-25.2907	18.8447	-187.072	-18.9981	-18.2327	-205.98	-3.01071	0.290066	-178.781	11.7738	-8.00514	
108	0.9	-163.992	19.7216	18.2826	-138.266	15.9618	17.5527	-119.13	25.3099	16.0887	-108.052	34.2746	18.1989	-118.317	-13.6557	-15.4252	-113.852	-27.0355	9.44376	-138.828	-8.49612	18.977	-125.493	-33.7241	-14.1882	-124.947	-38.0705	15.2616	-146.814	-17.742	21.021	-140.306	-48.07	-6.72618	-139.936	-45.2268	17.9087	-158.955	-22.4378	20.9927	-155.672	-54.3494	-4.16541	-152.956	-46.2291	19.5915	-162.96	-24.6986	20.6283	-182.106	-17.1917	-19.1011	-201.877	-4.03202	-3.89587	-176.041	8.68602	-8.78041	
109	0.908333	-162.024	19.1495	14.9549	-137.835	23.0414	18.404	-119.18	27.2262	14.5569	-106.315	40.5941	14.171	-116.71	-14.4576	-14.5276	-110.447	-23.5673	7.69661	-134.086	-9.73601	20.0579	-126.729	-30.0241	-15.6833	-119.934	-36.4014	14.7913	-144.9	-21.0634	22.1481	-137	-44.7868	-8.16436	-136.918	-39.7788	19.3499	-155.686	-24.1421	23.3469	-150.927	-55.0434	-3.38185	-146.256	-43.0079	17.8384	-163.351	-24.7254	22.0973	-182.307	-18.6952	-17.1231	-202.134	-4.29878	-3.46427	-177.458	11.2965	-8.70573	
110	0.916667	-164.049	22.6678	17.2799	-135.977	25.1918	15.6408	-118.388	30.1891	10.8136	-106.653	40.798	8.62307	-115.989	-11.0964	-16.1722	-111.523	-22.4728	8.80958	-132.774	-9.34164	20.499	-122.046	-29.547	-14.1011	-118.772	-35.5112	14.6628	-145.074	-14.7294	21.5034	-134.03	-42.122	-8.44786	-132.489	-39.409	18.2726	-154.873	-22.8467	23.9227	-147.83	-51.5749	-4.01834	-143.958	-43.5561	17.7099	-159.046	-25.3383	20.0716	-180.901	-20.9058	-16.9219	-201.673	-8.18866	-2.52691	-176.782	11.2554	-9.47928	
111	0.925	-163.827	21.7701	14.9485	-141.052	23.4131	16.7415	-122	32.0864	10.1588	-110.621	43.8642	9.72626	-114.757	-8.4807	-17.1517	-106.776	-19.9762	6.23761	-133.424	-7.74002	18.2075	-119.092	-27.0372	-15.2947	-115.574	-34.0637	12.2348	-143.37	-16.2182	21.3362	-133.07	-42.8067	-7.04438	-130.843	-39.1406	19.257	-152.457	-21.9262	23.6586	-148.21	-53.5898	-4.81079	-141.374	-45.6062	19.4795	-161.855	-23.077	22.6238	-174.501	-20.9757	-19.1343	-198.473	-8.30527	-2.46328	-178.241	7.0888	-8.8884	
112	0.933333	-164.247	24.0855	15.2797	-138.532	25.8983	13.3905	-121.242	32.7734	7.12573	-108.849	45.9948	6.29048	-113.764	-5.83471	-18.9675	-103.506	-13.6719	7.27276	-131.855	-4.29768	17.6075	-121.8	-28.8744	-16.7108	-109.602	-29.2937	10.9872	-136.662	-15.1393	22.3727	-128.421	-41.5152	-6.0384	-127.115	-36.044	18.8436	-148.836	-19.0317	22.284	-141.025	-51.3128	-0.837779	-137.191	-41.9671	17.5368	-157.456	-22.559	19.3101	-176.476	-23.4225	-16.6064	-195.205	-11.5273	-3.61664	-175.945	6.49812	-12.0488	
113	0.941667	-161.545	23.1875	11.8737	-140.77	25.9781	12.3075	-120.824	35.1094	5.15456	-108.471	47.0962	1.65791	-114.107	-5.05793	-20.4999	-102.114	-13.083	5.60559	-128.271	-2.92734	17.649	-115.571	-29.8505	-14.7988	-106.857	-26.8681	10.4018	-139.336	-12.6029	18.555	-124.064	-39.8018	-5.95466	-123.513	-32.1527	17.4223	-150.45	-17.7139	21.0165	-139.878	-51.6578	-1.8084	-136.539	-39.883	21.8441	-157.565	-22.4281	20.3688	-171.228	-22.3159	-18.6067	-196.426	-16.7604	-2.98028	-176.376	6.03096	-10.0652	
